<?xml version="1.0" encoding="utf-8"?>
<!-- Generator: Adobe Illustrator 16.0.1, SVG Export Plug-In . SVG Version: 6.00 Build 0)  -->
<!DOCTYPE svg PUBLIC "-//W3C//DTD SVG 1.1//EN" "http://www.w3.org/Graphics/SVG/1.1/DTD/svg11.dtd">
<svg version="1.1" id="Слой_1" xmlns="http://www.w3.org/2000/svg" xmlns:xlink="http://www.w3.org/1999/xlink" x="0px" y="0px"
	 width="538.583px" height="595.28px" viewBox="0 0 538.583 595.28" enable-background="new 0 0 538.583 595.28"
	 xml:space="preserve">
<g>
	<path fill="#FFFFFF" d="M110.087,385.479c0-9.566-5.67-15.274-15.164-15.274H74.267v30.601h20.656
		C104.556,400.806,110.087,395.222,110.087,385.479z"/>
	<path fill="#FFFFFF" d="M245.554,150.782c0-26.025-15.416-41.563-41.246-41.563h-56.196v83.259h56.196
		C230.513,192.479,245.554,177.274,245.554,150.782z"/>
	<path fill="#FFFFFF" d="M149.224,388.431c-10.895,0-17.597,6.754-18.036,18.101h34.706c0.065-0.814,0.089-1.593,0.089-2.278
		C165.983,393.464,160.659,388.431,149.224,388.431z"/>
	<path fill="#FFFFFF" d="M281.341,388.56c-11.109,0-16.519,6.529-16.519,19.947c0,12.717,6.465,20.017,17.73,20.017
		c6.407,0,11.288-2.599,14.91-7.928l-0.01-23.898C289.852,389.753,286.293,388.56,281.341,388.56z"/>
	<path fill="#FFFFFF" d="M203.928,412.578c9.327,0,14.678-4.486,14.678-12.299c0-7.813-5.351-12.296-14.678-12.296
		c-9.313,0-14.661,4.482-14.661,12.296C189.267,410.977,198.452,412.578,203.928,412.578z"/>
	<path fill="#FFFFFF" d="M204.067,434.761c-12.179,0-16.712,2.479-16.712,9.17c0,6.803,8.926,9.222,17.274,9.222
		c4.267,0,18.201-0.665,18.201-9.222C222.831,436.226,216.235,434.761,204.067,434.761z"/>
	<path fill="#FFFFFF" d="M522.146,5.019H419.387H64.33H18.693H5.503v13.19v39.118v445.649v13.187h13.19h21.45h18.615v78.092
		l89.875-78.092H506.22h15.926h13.196v-13.187V40.839v-22.63V5.019H522.146z M351.646,137.228c44.537,0,70.08,24.552,70.08,67.38
		c0,6.06-0.634,13.063-1.694,18.72l-0.724,3.843H303.611c4.413,25.872,22.677,41.278,49.728,41.509l1.985,0.023
		c14.765,0,28.953-3.542,41.025-10.223l3.499-1.929l12.407,15.614l-4.238,2.848c-14.948,10.058-33.877,15.364-54.714,15.364
		c-45.864,0-75.486-30.107-75.486-76.724C277.817,167.223,306.803,137.228,351.646,137.228z M112.339,435.587l-19.074-26.403h-18.99
		v26.403h-9.435v-73.77h30.638c14.612,0,24.047,9.283,24.047,23.651c0,11.665-5.999,19.904-16.188,22.538l20.4,27.58H112.339z
		 M174.223,412.146l-0.271,1.419h-42.523c1.619,9.509,8.333,15.165,18.283,15.261l0.725,0.004c5.428,0,10.641-1.303,15.08-3.758
		l1.287-0.71l4.56,5.741l-1.554,1.043c-5.498,3.703-12.457,5.652-20.119,5.652c-16.855,0-27.742-11.067-27.742-28.202
		c0-17.069,10.65-28.094,27.134-28.094c16.375,0,25.762,9.021,25.762,24.768C174.844,407.494,174.613,410.067,174.223,412.146z
		 M205.588,461.034c-13.246,0-27.393-4.492-27.393-17.104c0-6.013,2.438-10.436,7.265-13.195c-2.852-1.627-4.588-4.2-4.588-7.115
		c0-3.261,1.956-6.464,5.348-8.887c-3.773-3.496-5.749-8.443-5.749-14.454c0-12.326,9.207-20.293,23.457-20.293
		c3.922,0,7.472,0.59,10.563,1.76h17.097v7.063l-8.262,0.206c2.649,2.943,4.069,6.812,4.069,11.265
		c0,12.715-8.767,20.298-23.468,20.298c-3.901,0-7.393-0.639-10.391-1.898c-2.495,1.223-4.014,2.931-4.014,4.544
		c0,2.098,2.627,3.61,6.391,3.688l10.172-0.004c11.17,0,26.015,1.758,26.015,17.028
		C232.101,456.542,218.407,461.034,205.588,461.034z M248.515,435.422h-9.225v-53.676h9.225V435.422z M199.804,215.268h-51.66
		v71.823h-25.673V86.404h83.355c39.745,0,65.403,25.251,65.403,64.341c0,31.737-16.306,54.154-44.042,61.329l55.506,75.016h-31.007
		L199.804,215.268z M306.683,435.422h-8.594l-0.148-4.945c-5.54,5.003-12.035,6.149-16.854,6.149
		c-15.722,0-25.487-10.781-25.487-28.142c0-17.841,8.918-28.078,24.465-28.078c5.504,0,10.109,1.152,17.398,6.767v-25.221h9.22
		V435.422z M326.627,435.422h-9.229v-53.676h9.229V435.422z M385.057,435.422h-8.608l-0.144-5.806
		c-5.949,4.785-10.78,7.212-17.769,7.212c-11.467,0-23.063-7.013-23.063-20.395v-34.688h9.225v33.656
		c0,9.065,7.862,13.2,15.171,13.2c5.404,0,9.064-1.803,15.959-7.941v-38.915h9.229V435.422z M476.001,435.422h-9.225v-33.668
		c0-9.062-6.965-13.194-13.438-13.194c-4.884,0-8.241,1.053-14.641,7.099c0.553,1.781,0.819,3.627,0.819,5.603v34.161h-9.228
		v-33.668c0-9.062-6.968-13.194-13.435-13.194c-4.721,0-7.777,1.682-13.895,7.741v39.121h-9.225v-53.676h8.599l0.143,5.469
		c5.233-4.544,9.587-6.849,15.889-6.849c7.025,0,13.447,3.084,17.247,8.16c6.92-6.062,11.892-8.153,18.945-8.153
		c10.662,0,21.442,6.99,21.442,20.356V435.422z"/>
	<path fill="#FFFFFF" d="M397.632,201.85c0-29.359-14.503-43.042-45.615-43.042c-29.63,0-47.86,18.369-49.055,49.244h94.408
		C397.541,205.829,397.632,203.708,397.632,201.85z"/>
</g>
</svg>
